<?xml version="1.0" standalone="no"?>
<!DOCTYPE svg PUBLIC "-//W3C//DTD SVG 20010904//EN"
 "http://www.w3.org/TR/2001/REC-SVG-20010904/DTD/svg10.dtd">
<svg version="1.0" xmlns="http://www.w3.org/2000/svg"
 width="310.000000pt" height="310.000000pt" viewBox="0 0 310.000000 310.000000"
 preserveAspectRatio="xMidYMid meet">
<metadata>
Created by potrace 1.11, written by Peter Selinger 2001-2013
</metadata>
<g transform="translate(0.000000,310.000000) scale(0.100000,-0.100000)"
fill="#000000" stroke="none">
<path d="M1391 2907 c-73 -15 -147 -69 -188 -139 -11 -18 -39 -89 -61 -158
-67 -207 -271 -835 -322 -990 -26 -80 -82 -253 -124 -385 -43 -132 -81 -249
-86 -260 -5 -11 -38 -112 -74 -225 -36 -113 -88 -275 -116 -360 -27 -85 -50
-156 -50 -158 0 -2 21 -12 47 -24 44 -19 126 -26 179 -14 66 14 158 85 188
145 17 33 37 91 181 536 64 198 131 405 149 460 19 55 73 222 121 370 48 149
97 302 110 340 106 321 265 813 265 822 0 16 -76 43 -130 47 -25 1 -65 -1 -89
-7z"/>
<path d="M2496 2905 c-56 -14 -117 -56 -157 -105 -32 -39 -52 -96 -199 -550
-56 -173 -112 -346 -125 -385 -13 -38 -83 -252 -155 -475 -73 -223 -149 -457
-170 -520 -21 -63 -72 -223 -114 -355 -43 -132 -82 -249 -88 -259 -13 -24 7
-41 66 -57 96 -26 198 -5 273 57 56 46 83 95 126 229 19 61 73 227 120 370
140 430 319 980 432 1330 59 182 125 384 147 450 22 66 48 146 58 178 l18 58
-39 20 c-48 24 -129 30 -193 14z"/>
</g>
</svg>
